<?xml version="1.0" encoding="utf-8"?>
<!-- Generator: Adobe Illustrator 19.2.1, SVG Export Plug-In . SVG Version: 6.00 Build 0)  -->
<svg version="1.1" id="layer" xmlns="http://www.w3.org/2000/svg" xmlns:xlink="http://www.w3.org/1999/xlink" x="0px" y="0px"
	 viewBox="0 0 652 652" style="enable-background:new 0 0 652 652;" xml:space="preserve">
<style type="text/css">
	.st0{fill:#007BC5;}
	.st1{fill:#92BDE4;}
</style>
<path class="st0" d="M210.4,296v12.6c2.5-1.5,5.7-2.1,9-2.2c2,0,3.6,0,5.7,0c10.6,0.2,15,4.4,15,14.8v24.5h-8.5V322
	c0-6-2.7-8.7-8.8-8.8c-1.2,0-3,0-3.9,0c-3.5,0.1-6.7,1-8.3,2.2v30.3h-8.5V296H210.4z M193.1,338.5c-1.8,0.2-3.5,0.2-4.9,0.2
	c-6.3,0-8.3-1.7-8.3-8.5v-17.5h11.6v-6.4h-11.6V296h-8.5v10.4h-9.1v6.4h9.1v16.3c0,12.3,4.3,16.6,15.7,16.6c1.8,0,4-0.1,6.1-0.3
	V338.5z M100.8,309.7c-2.3-2-5.7-3-10.6-3.2c-1.7-0.1-2.9-0.1-5.8,0c-5.4,0.2-11.1,1.7-15.1,4.3v34.9h8.5v-30.8
	c1.9-1.2,4.9-1.7,7-1.8c1.9-0.1,3-0.1,4.6,0c4.6,0.2,7.2,2.1,7.2,7v25.5h8.5v-25c0-2.1-0.2-3.8-0.7-5.3c1.8-1.5,5-2.2,7.3-2.3
	c1.9-0.1,3.1-0.1,4.7,0c4.7,0.2,7.2,2.1,7.2,7v25.6h8.5v-25.1c0-10.1-4-14.1-14.9-14.2c-1.8,0-2.6,0-5.6,0
	C107.6,306.5,103.5,307.6,100.8,309.7 M43.4,328.9c6.7,0.8,9.1,0.8,9.1,5.3c0,3.7-0.7,5-6.3,5H22.7v6.6h22.7
	c10.7,0,15.3-2.8,15.6-10c0-0.9,0-3,0-4.1c-0.2-6.4-4.2-8.1-12.7-9.1l-9-1.1c-6.6-0.8-8.9-0.7-8.9-4.7c0-2.7,1.1-3.8,5.4-3.8h21.8
	v-6.6H36.3c-9.7,0-14.6,2.4-14.6,9.7c0,0.9,0,1.4,0,2.4c0.2,6.4,3.7,8.2,12.6,9.3L43.4,328.9z M270,328.9c6.7,0.8,9.1,0.8,9.1,5.3
	c0,3.7-0.7,5-6.3,5h-23.4v6.6H272c10.7,0,15.3-2.8,15.6-10c0-0.9,0-3,0-4.1c-0.2-6.4-4.2-8.1-12.7-9.1l-9-1.1
	c-6.6-0.8-8.9-0.7-8.9-4.7c0-2.7,1.1-3.8,5.4-3.8h21.8v-6.6H263c-9.7,0-14.6,2.4-14.6,9.7c0,0.9,0,1.4,0,2.4
	c0.2,6.4,3.7,8.2,12.6,9.3L270,328.9z M143.4,306.4V329c0,10.4,2.6,16.7,15.3,16.7c1.3,0,3.1-0.1,4.2-0.2l0-6.9
	c-0.7,0-1.8,0.1-2.6,0.1c-6.8,0-8.4-2.1-8.4-8.5v-23.8H143.4z"/>
<path class="st1" d="M345.5,309.7c2.7-2.1,6.8-3.2,10.9-3.3c3,0,3.7,0,5.6,0c10.9,0.1,14.9,4.2,14.9,14.2v25.1h-8.5v-25.6
	c0-4.9-2.5-6.8-7.2-7c-1.6-0.1-2.8-0.1-4.7,0c-2.3,0.1-5.6,0.8-7.3,2.3c0.4,1.5,0.7,3.2,0.7,5.3v25h-8.5v-25.5c0-4.9-2.6-6.8-7.2-7
	c-1.6-0.1-2.7-0.1-4.6,0c-2.1,0.1-5.1,0.6-7,1.8v30.8h-8.5v-34.9c4-2.5,9.7-4.1,15.1-4.3c3-0.1,4.1-0.1,5.8,0
	C339.8,306.7,343.2,307.7,345.5,309.7 M485.1,306.4V329c0,10.4,2.6,16.7,15.3,16.7c1.3,0,3.1-0.1,4.2-0.2l0-6.9
	c-0.7,0-1.8,0.1-2.6,0.1c-6.8,0-8.4-2.1-8.4-8.5v-23.8H485.1z M602.2,296v33c0,10.4,2.6,16.7,15.3,16.7c1.3,0,3.1-0.1,4.1-0.1l0-6.9
	c-0.7,0-1.8,0.1-2.6,0.1c-6.8,0-8.4-2.1-8.4-8.5V296H602.2z M473.4,336.1c0,7.3-4.9,9.6-14.6,9.6h-9.6c-12.8,0-15.3-6.3-15.3-16.7
	v-8c0-10.4,4.4-14.4,15-14.6c2.1,0,5,0,7.1,0c3.3,0.1,6.4,0.7,9,2.2V296h8.5L473.4,336.1z M442.4,330.2c0,6.4,1.5,8.7,8.4,8.7h8.6
	c4.3,0,5.4-1.1,5.4-3.8v-19.9c-1.7-1.2-4.8-2-8.2-2.1c-0.9,0-4.1,0-5.3,0c-6.1,0.1-8.8,2.6-8.8,8.6V330.2z M386.7,316.1
	c0-7.3,4.9-9.7,14.6-9.7h10c9.7,0,14.6,2.4,14.6,9.7c0,0.9,0,2,0,3c-0.2,6.4-3.7,8.2-12.6,9.3l-9.1,1.1c-6.7,0.8-9.1,0.2-9.1,4.7
	c0,3.7,0.7,5,6.3,5h22.7v6.6h-22c-10.7,0-15.3-2.8-15.6-10L386.7,316.1z M400.7,313.1c-4.3,0-5.4,1.1-5.4,3.8v6.9
	c1.2-0.2,2.5-0.4,4-0.6l9-1.1c6.6-0.8,8.9-1.2,8.9-5.2c0-2.7-1.1-3.8-5.4-3.8H400.7 M591.8,336.1c0,7.3-4.9,9.7-14.6,9.7h-10
	c-9.7,0-14.6-2.4-14.6-9.7c0-0.9,0-1.9,0-3c0.2-6.4,3.7-8.3,12.6-9.3l9.1-1.1c6.7-0.8,9.1-0.2,9.1-4.6c0-3.8-0.7-5-6.3-5h-22.7v-6.6
	h22c10.7,0,15.3,2.8,15.6,10L591.8,336.1z M577.7,339.1c4.3,0,5.4-1.1,5.4-3.8v-6.9c-1.2,0.2-2.5,0.4-4,0.6l-9,1.1
	c-6.6,0.8-8.9,1.2-8.9,5.2c0,2.7,1.1,3.8,5.4,3.8H577.7 M509.5,330.9c0,10.4,4.4,14.6,15,14.8c2.1,0,9.6,0,11.6,0
	c5.2,0,9.3-0.8,11.1-2.4l-2.8-6.4c-1.7,1.2-5.1,1.9-8.6,2c-0.9,0-7.8,0-9,0c-6.1-0.1-8.8-2.8-8.8-8.8V322c0-6,2.7-8.7,8.8-8.8
	c1.2,0,7.6,0,8.5,0c3.5,0.1,6.9,0.8,8.6,2l2.8-6.4c-1.9-1.6-5.9-2.4-11.1-2.4c-2,0-9.1,0-11.1,0c-10.6,0.2-15,4.4-15,14.8
	L509.5,330.9z"/>
</svg>
